<svg width="250" height="34" viewBox="0 0 250 34" fill="none" xmlns="http://www.w3.org/2000/svg">
<path d="M31.6667 17C31.1778 17 30.7424 16.8243 30.3604 16.4729C29.9785 16.1215 29.7569 15.6861 29.6958 15.1667C29.2986 12.325 28.0993 9.90347 26.0979 7.90208C24.0965 5.90069 21.675 4.70139 18.8333 4.30417C18.3139 4.24306 17.8785 4.02917 17.5271 3.6625C17.1757 3.29583 17 2.85278 17 2.33333C17 1.81389 17.1833 1.37847 17.55 1.02708C17.9167 0.675694 18.3444 0.530556 18.8333 0.591667C22.6833 1.01944 25.9681 2.59306 28.6875 5.3125C31.4069 8.03194 32.9806 11.3167 33.4083 15.1667C33.4694 15.6556 33.3243 16.0833 32.9729 16.45C32.6215 16.8167 32.1861 17 31.6667 17ZM24.0125 17C23.6153 17 23.2639 16.8625 22.9583 16.5875C22.6528 16.3125 22.4236 15.9458 22.2708 15.4875C22.0264 14.6014 21.5604 13.8146 20.8729 13.1271C20.1854 12.4396 19.3986 11.9736 18.5125 11.7292C18.0542 11.5764 17.6875 11.3472 17.4125 11.0417C17.1375 10.7361 17 10.3694 17 9.94167C17 9.33056 17.2139 8.83403 17.6417 8.45208C18.0694 8.07014 18.5431 7.94028 19.0625 8.0625C20.7736 8.45972 22.2479 9.27708 23.4854 10.5146C24.7229 11.7521 25.5403 13.2264 25.9375 14.9375C26.0597 15.4569 25.9222 15.9306 25.525 16.3583C25.1278 16.7861 24.6236 17 24.0125 17ZM31.575 33.5C27.7556 33.5 23.9819 32.6674 20.2542 31.0021C16.5264 29.3368 13.1347 26.9764 10.0792 23.9208C7.02361 20.8653 4.66319 17.4736 2.99792 13.7458C1.33264 10.0181 0.5 6.24444 0.5 2.425C0.5 1.875 0.683333 1.41667 1.05 1.05C1.41667 0.683333 1.875 0.5 2.425 0.5H9.85C10.2778 0.5 10.6597 0.645139 10.9958 0.935417C11.3319 1.22569 11.5306 1.56944 11.5917 1.96667L12.7833 8.38333C12.8444 8.87222 12.8292 9.28472 12.7375 9.62083C12.6458 9.95694 12.4778 10.2472 12.2333 10.4917L7.7875 14.9833C8.39861 16.1139 9.12431 17.2063 9.96458 18.2604C10.8049 19.3146 11.7292 20.3306 12.7375 21.3083C13.6847 22.2556 14.6778 23.134 15.7167 23.9438C16.7556 24.7535 17.8556 25.4944 19.0167 26.1667L23.325 21.8583C23.6 21.5833 23.959 21.3771 24.4021 21.2396C24.8451 21.1021 25.2806 21.0639 25.7083 21.125L32.0333 22.4083C32.4611 22.5306 32.8125 22.7521 33.0875 23.0729C33.3625 23.3938 33.5 23.7528 33.5 24.15V31.575C33.5 32.125 33.3167 32.5833 32.95 32.95C32.5833 33.3167 32.125 33.5 31.575 33.5Z" fill="#0049E6"/>
<path d="M58.2563 31H51.7763V8.2H46.1763V3H58.2563V31ZM77.028 13.52C80.9747 13.52 83.8814 14.3067 85.748 15.88C87.6414 17.4533 88.588 19.56 88.588 22.2C88.588 23.9067 88.1614 25.4667 87.308 26.88C86.4547 28.2667 85.148 29.3867 83.388 30.24C81.6547 31.0667 79.508 31.48 76.948 31.48C74.9747 31.48 73.028 31.2267 71.108 30.72C69.2147 30.1867 67.6014 29.44 66.268 28.48L68.828 23.52C69.8947 24.32 71.1214 24.9467 72.508 25.4C73.8947 25.8267 75.3214 26.04 76.788 26.04C78.4147 26.04 79.6947 25.72 80.628 25.08C81.5614 24.44 82.028 23.5467 82.028 22.4C82.028 21.2 81.5347 20.2933 80.548 19.68C79.588 19.0667 77.908 18.76 75.508 18.76H68.348L69.788 3H86.868V8.2H75.188L74.748 13.52H77.028ZM110.64 25.12V31H104.32V25.12H89.2398V20.76L102.44 3H109.24L96.9998 19.84H104.52V14.6H110.64V19.84H115.2V25.12H110.64ZM134.651 25.12V31H128.331V25.12H113.251V20.76L126.451 3H133.251L121.011 19.84H128.531V14.6H134.651V19.84H139.211V25.12H134.651ZM151.183 14.48V19.48H139.863V14.48H151.183ZM174.097 25.12V31H167.777V25.12H152.697V20.76L165.897 3H172.697L160.457 19.84H167.977V14.6H174.097V19.84H178.657V25.12H174.097ZM200.309 7.2L189.909 31H182.869L192.909 8.28H183.629V12.84H177.869V3H200.309V7.2ZM223.92 31H202.76V26.8L213.56 16.6C214.707 15.5067 215.48 14.5733 215.88 13.8C216.28 13 216.48 12.2133 216.48 11.44C216.48 10.32 216.094 9.46667 215.32 8.88C214.574 8.26667 213.467 7.96 212 7.96C210.774 7.96 209.667 8.2 208.68 8.68C207.694 9.13333 206.867 9.82667 206.2 10.76L201.48 7.72C202.574 6.09333 204.08 4.82667 206 3.92C207.92 2.98667 210.12 2.52 212.6 2.52C214.68 2.52 216.494 2.86667 218.04 3.56C219.614 4.22667 220.827 5.18667 221.68 6.44C222.56 7.66667 223 9.12 223 10.8C223 12.32 222.68 13.7467 222.04 15.08C221.4 16.4133 220.16 17.9333 218.32 19.64L211.88 25.72H223.92V31ZM248.332 7.2L237.932 31H230.892L240.932 8.28H231.652V12.84H225.892V3H248.332V7.2Z" fill="#111111"/>
</svg>
